<svg xmlns="http://www.w3.org/2000/svg" width="24" height="24" viewBox="0 0 24 24" fill="none" stroke="#c8c8c8" stroke-width="2" stroke-linecap="round" stroke-linejoin="round">
  <circle cx="12" cy="12" r="3" />
  <path d="M19.4 15a1.7 1.7 0 0 0 .3 1.8l.1.1-1.7 2.9-0.2-.1a1.7 1.7 0 0 0-2 .3l-.1.1-2.1-1.2-.1-.2a1.7 1.7 0 0 0-1.6-.9h-.2l-2.1-1.2-.1.2a1.7 1.7 0 0 0-1.9.4l-.1.1-2.9-1.7.1-.2a1.7 1.7 0 0 0 .3-2l-.1-.1 1.2-2.1.2-.1a1.7 1.7 0 0 0 .9-1.6v-.2l1.2-2.1-.2-.1a1.7 1.7 0 0 0-.4-1.9l-.1-.1 1.7-2.9.2.1a1.7 1.7 0 0 0 2-.3l.1-.1 2.1 1.2.1.2a1.7 1.7 0 0 0 1.6.9h.2l2.1 1.2.1-.2a1.7 1.7 0 0 0 1.9-.4l.1-.1 2.9 1.7-.1.2a1.7 1.7 0 0 0-.3 2l.1.1-1.2 2.1-.2.1a1.7 1.7 0 0 0-.9 1.6v.2z" />
</svg>
